<svg id="Layer_1" data-name="Layer 1" xmlns="http://www.w3.org/2000/svg" viewBox="0 0 159.94 56.64"><defs><style>.cls-1{fill:#324655}</style></defs><path class="cls-1" d="M85.6 21.62h3.76l.17 4.67a10.51 10.51 0 019.13-5.06c6.86.13 11.88 5 11.88 12.31 0 7.56-5 12.4-12.14 12.4-3.41 0-7.16-1.48-9-4.8v15.5h-3.8zm21 12c0-5.38-3.5-8.56-8.39-8.56s-8.38 3.62-8.38 8.56a8.24 8.24 0 007.91 8.55h.47c4.79.11 8.4-3.17 8.4-8.54zm7.48-12h3.75l.18 4.67a10.51 10.51 0 019.12-5.06c6.86.13 11.88 5 11.88 12.31 0 7.56-5 12.4-12.14 12.4-3.41 0-7.16-1.48-9-4.8v15.5H114v-35zm21 12c0-5.38-3.49-8.56-8.38-8.56s-8.39 3.62-8.39 8.56a8.25 8.25 0 007.92 8.55h.47c4.76.11 8.38-3.17 8.38-8.54zM49.7 42.15c-2.1-.4-2.88-2.06-2.88-4.55V25h7.42v-3.38H47L46.82 14l-3.82.41v7.21h-4.83v3.45H43v12.58c0 5 2.19 7.9 6.77 8.12v-3.62z"/><path d="M125 5.9h17.3A50.41 50.41 0 00130.9 0h29v28.78a45.75 45.75 0 00-5.9-11.22v17.16c-4.28-13.15-16.69-24.98-29-28.82z" fill="#7daeed"/><path d="M142.38 5.9a48.91 48.91 0 0111.75 11.66V5.9z" fill="#0384f3"/><path class="cls-1" d="M76.08 45.34H80V21.62h-3.88v4.23a10 10 0 00-8.82-4.71c-6.9 0-12.3 4.58-12.3 12.31S60.36 46 67.17 46a10 10 0 008.74-4.8zm-8.69-2.89a8.38 8.38 0 01-8.57-8.18v-.55a8.33 8.33 0 018-8.69h.59c11.47-.09 11.47 17.33-.02 17.42zm72.67.44h-.91v-.53h2.44v.53h-1v2.44h-.57zm4.5.3l-1 1.27h-.13l-1-1.26v2.14h-.57v-3h.66l.91 1.27.92-1.27h.66v3h-.53zm-127-21.57l.17 3.67a9.65 9.65 0 018.17-4.15c6 0 10.44 4 10.44 11v13.2h-4V32.19c0-4.59-2.66-7.38-7.2-7.38-4.33 0-7.34 3.45-7.34 7.77v12.76H14V21.62zM0 21.62l3.84 3.84v19.83h3.89V21.62z"/></svg>